HIERARCHY
ROOT Hips
{
 OFFSET 0.000000 0.000000 0.000000
 CHANNELS 6 Xposition Yposition Zposition Yrotation Xrotation Zrotation
 JOINT Chest
 {
  OFFSET 0.000000 9.585900 0.002600
  CHANNELS 3 Yrotation Xrotation Zrotation
  JOINT Chest2
  {
   OFFSET 0.000000 9.601200 -0.005300
   CHANNELS 3 Yrotation Xrotation Zrotation
   JOINT Chest3
   {
    OFFSET 0.000000 9.561800 0.000000
    CHANNELS 3 Yrotation Xrotation Zrotation
    JOINT Chest4
    {
     OFFSET 0.000000 9.552100 0.000000
     CHANNELS 3 Yrotation Xrotation Zrotation
     JOINT Neck
     {
      OFFSET 0.000000 14.453000 0.000000
      CHANNELS 3 Yrotation Xrotation Zrotation
      JOINT Head
      {
       OFFSET 0.000000 8.936500 -0.011300
       CHANNELS 3 Yrotation Xrotation Zrotation
       End Site
       {
        OFFSET 0.000000 17.073600 -0.006000
       }
      }
     }
     JOINT RightCollar
     {
      OFFSET -2.921100 9.558500 0.000000
      CHANNELS 3 Yrotation Xrotation Zrotation
      JOINT RightShoulder
      {
       OFFSET -13.519700 0.000000 0.000000
       CHANNELS 3 Yrotation Xrotation Zrotation
       JOINT RightElbow
       {
        OFFSET 0.000000 -29.696600 0.000000
        CHANNELS 3 Yrotation Xrotation Zrotation
        JOINT RightWrist
        {
         OFFSET 0.000000 -24.004700 0.000000
         CHANNELS 3 Yrotation Xrotation Zrotation
         End Site
         {
          OFFSET 0.000000 -17.728500 0.000000
         }
        }
       }
      }
     }
     JOINT LeftCollar
     {
      OFFSET 2.921100 9.558500 0.000000
      CHANNELS 3 Yrotation Xrotation Zrotation
      JOINT LeftShoulder
      {
       OFFSET 13.519700 0.000000 0.000000
       CHANNELS 3 Yrotation Xrotation Zrotation
       JOINT LeftElbow
       {
        OFFSET 0.000000 -29.696600 0.000000
        CHANNELS 3 Yrotation Xrotation Zrotation
        JOINT LeftWrist
        {
         OFFSET 0.000000 -24.004700 0.000000
         CHANNELS 3 Yrotation Xrotation Zrotation
         End Site
         {
          OFFSET 0.000000 -17.728500 0.000000
         }
        }
       }
      }
     }
    }
   }
  }
 }
 JOINT RightHip
 {
  OFFSET -7.771700 -0.012900 -0.001300
  CHANNELS 3 Yrotation Xrotation Zrotation
  JOINT RightKnee
  {
   OFFSET 0.000000 -40.869800 0.001200
   CHANNELS 3 Yrotation Xrotation Zrotation
   JOINT RightAnkle
   {
    OFFSET 0.000000 -39.717900 0.002100
    CHANNELS 3 Yrotation Xrotation Zrotation
    JOINT RightToe
    {
     OFFSET 0.000000 -4.965400 11.033500
     CHANNELS 3 Yrotation Xrotation Zrotation
     End Site
     {
      OFFSET 0.000000 -1.423100 5.872300
     }
    }
   }
  }
 }
 JOINT LeftHip
 {
  OFFSET 7.771700 -0.012900 -0.001300
  CHANNELS 3 Yrotation Xrotation Zrotation
  JOINT LeftKnee
  {
   OFFSET 0.000000 -40.869800 0.001200
   CHANNELS 3 Yrotation Xrotation Zrotation
   JOINT LeftAnkle
   {
    OFFSET 0.000000 -39.717900 0.002100
    CHANNELS 3 Yrotation Xrotation Zrotation
    JOINT LeftToe
    {
     OFFSET 0.000000 -4.965400 11.033500
     CHANNELS 3 Yrotation Xrotation Zrotation
     End Site
     {
      OFFSET 0.000000 -1.423100 5.872300
     }
    }
   }
  }
 }
}
MOTION
Frames: 12
Frame Time: 0.008333
25.522267 49.944379 60.279593 172.654063 -33.234556 -6.655350 5.792489 20.735979 6.968874 0.664952 2.893853 0.706010 1.168550 4.734312 1.184536 4.940601 17.638745 5.063573 0.161863 16.757290 2.070648 -0.416681 -4.655044 3.778640 -0.799661 -5.233517 -7.356701 0.820094 -1.996030 -1.961010 143.962140 -77.753879 -153.864264 10.216499 -1.162447 46.227842 -8.206270 -1.494359 0.644023 10.937782 -1.352861 3.342391 -135.335183 -68.505521 138.288376 13.199969 -2.656463 -35.265777 -0.369220 -47.425949 11.190428 -113.726134 83.268201 -102.006141 -1.134224 -12.539517 -4.036565 0.074106 0.872701 0.030121 -8.421445 -51.227944 17.011875 -150.234844 80.571275 -158.008321 1.002701 -17.225075 8.366964 -0.434188 -0.720003 -0.156475
25.518433 49.944440 60.278997 172.697536 -33.208255 -6.648435 5.793896 20.736504 6.963932 0.739444 2.937804 0.726663 1.151141 4.730743 1.184526 4.905654 17.613883 5.063786 0.246951 16.788961 2.137020 -0.391395 -4.674542 3.889572 -0.812000 -5.142884 -7.276810 0.726294 -1.934436 -1.979653 144.871303 -77.435658 -154.747982 9.915649 -1.450314 45.900451 -8.239341 -1.489644 0.656234 10.661337 -1.408130 3.232144 -135.361679 -68.274754 138.429297 13.543190 -3.224671 -34.191221 -0.396619 -47.450554 11.159004 -113.919187 83.283440 -102.205293 -1.167960 -12.564504 -4.031554 0.054047 0.881787 0.022321 -8.422909 -51.252663 16.978763 -150.172276 80.579488 -157.967681 0.984973 -17.215087 8.382156 -0.426684 -0.715579 -0.150591
25.514604 49.945662 60.277008 172.723782 -33.193282 -6.637948 5.876597 20.763266 6.997807 0.720640 2.932145 0.725099 1.157944 4.740336 1.190391 4.879495 17.601361 5.066601 0.316669 16.812437 2.201892 -0.366666 -4.680379 3.998055 -0.826016 -5.034775 -7.189020 0.654221 -1.891441 -1.996236 145.558751 -77.094681 -155.425822 9.598021 -1.779488 45.555311 -8.248539 -1.402469 0.661469 10.390926 -1.548693 3.105867 -135.452162 -68.031793 138.628173 13.878801 -3.783918 -33.300762 -0.425679 -47.464525 11.145997 -114.102191 83.302122 -102.403873 -1.207420 -12.585414 -4.021551 0.010005 0.884074 0.010810 -8.414622 -51.265185 16.945747 -150.163497 80.588383 -157.978487 0.992162 -17.211750 8.369337 -0.438662 -0.713437 -0.127729
25.510307 49.947795 60.273834 172.788198 -33.182320 -6.649213 5.917535 20.785530 7.025080 0.704118 2.927224 0.724647 1.162890 4.747054 1.195704 4.984561 17.656838 5.113676 0.257391 16.761116 2.261798 -0.348781 -4.670569 4.107079 -0.960159 -4.975620 -7.098802 0.605114 -1.862319 -2.009496 146.085876 -76.740355 -155.953177 9.259538 -2.149729 45.212544 -8.385162 -1.393785 0.666630 10.164404 -1.680597 2.984098 -135.614930 -67.795042 138.879376 14.217147 -4.319184 -32.556701 -0.471167 -47.468847 11.144367 -114.218111 83.305716 -102.532319 -1.302851 -12.617010 -3.992978 0.057846 0.892388 -0.000035 -8.425030 -51.270569 16.913091 -150.108432 80.595962 -157.941923 0.972696 -17.216936 8.381176 -0.428681 -0.696290 -0.136000
25.509720 49.950352 60.271477 172.852537 -33.170461 -6.685800 5.942235 20.789398 7.064832 0.706946 2.930150 0.727816 1.167566 4.751428 1.200909 5.026354 17.670512 5.139867 0.248457 16.759457 2.324442 -0.344059 -4.647789 4.218523 -1.046296 -4.844796 -7.000278 0.569823 -1.843904 -2.022044 146.568894 -76.388326 -156.431530 8.903918 -2.548194 44.883788 -8.466512 -1.332661 0.668515 9.970360 -1.813843 2.861864 -135.822252 -67.584902 139.145240 14.580722 -4.821970 -31.918231 -0.515846 -47.473475 11.148674 -114.357099 83.318629 -102.680285 -1.249731 -12.639192 -4.011345 0.034241 0.902338 0.019337 -8.465293 -51.275997 16.918540 -150.071104 80.600934 -157.919012 0.961000 -17.225201 8.400734 -0.429297 -0.683215 -0.143766
25.508092 49.952196 60.269713 172.886775 -33.155310 -6.701440 5.986530 20.782559 7.098598 0.710389 2.932632 0.731263 1.133061 4.745953 1.197189 5.088647 17.680328 5.167497 0.255132 16.776294 2.387608 -0.353016 -4.615154 4.332806 -1.121181 -4.683533 -6.894411 0.537983 -1.833819 -2.035413 147.066911 -76.055158 -156.909855 8.525368 -2.952561 44.573396 -8.527893 -1.236556 0.666615 9.800658 -1.970056 2.742944 -136.057743 -67.415562 139.410736 14.993111 -5.285891 -31.350784 -0.532715 -47.483329 11.145778 -114.441677 83.324071 -102.767976 -1.213702 -12.675432 -4.024371 0.051986 0.922802 0.030579 -8.457934 -51.289113 16.910816 -149.995974 80.601629 -157.848950 0.933733 -17.231358 8.422217 -0.418051 -0.673207 -0.146382
25.506929 49.953480 60.268412 172.902551 -33.137952 -6.710861 6.025915 20.768670 7.126659 0.713349 2.934830 0.734086 1.119582 4.744256 1.195590 5.152406 17.694220 5.200132 0.256107 16.794929 2.451179 -0.372540 -4.578931 4.449853 -1.203578 -4.518471 -6.784939 0.507544 -1.833637 -2.045657 147.578191 -75.754689 -157.389207 8.110475 -3.347793 44.286392 -8.596333 -1.131305 0.660783 9.650013 -2.147359 2.631912 -136.318110 -67.298964 139.681761 15.452543 -5.712222 -30.821781 -0.535588 -47.499218 11.147105 -114.464977 83.318436 -102.784910 -1.196094 -12.702754 -4.030831 -0.003846 0.933332 0.032727 -8.470270 -51.301646 16.917990 -149.984248 80.605914 -157.851196 0.932531 -17.240883 8.411496 -0.432628 -0.666087 -0.134522
25.505899 49.956200 60.263912 172.935533 -33.139363 -6.729009 6.016489 20.773731 7.136887 0.762272 2.953371 0.751329 1.130874 4.741534 1.198519 5.173867 17.710413 5.227680 0.253107 16.810852 2.513727 -0.399052 -4.547666 4.566378 -1.288394 -4.357901 -6.677769 0.480062 -1.846782 -2.048617 148.149259 -75.498555 -157.916747 7.655061 -3.721175 44.024296 -8.670124 -1.029689 0.647768 9.507156 -2.338657 2.532573 -136.611660 -67.243182 139.972210 15.931553 -6.123869 -30.275977 -0.529219 -47.497234 11.145598 -114.550089 83.316419 -102.860574 -1.201105 -12.736726 -4.025834 0.020793 0.941772 0.036302 -8.478651 -51.297705 16.919264 -149.937798 80.603822 -157.815478 0.910747 -17.238780 8.430625 -0.432642 -0.669635 -0.140537
25.503517 49.958785 60.257962 172.991002 -33.143683 -6.751797 6.082005 20.804886 7.200380 0.736403 2.953525 0.748262 1.177263 4.767851 1.219620 5.134701 17.699746 5.235508 0.246455 16.822273 2.573217 -0.431348 -4.524571 4.678461 -1.372264 -4.203467 -6.576182 0.456253 -1.871472 -2.043812 148.882977 -75.296073 -158.588292 7.179456 -4.048958 43.773452 -8.746696 -0.937577 0.628131 9.354569 -2.533504 2.442982 -136.922097 -67.242135 140.274870 16.399746 -6.558824 -29.652203 -0.524218 -47.490556 11.125747 -114.682698 83.320399 -102.979534 -1.220503 -12.767812 -4.009613 0.049452 0.928418 0.026747 -8.500576 -51.288426 16.909618 -149.883005 80.602487 -157.773988 0.884452 -17.239931 8.449609 -0.426017 -0.668424 -0.144459
25.502513 49.961492 60.251014 173.030331 -33.154372 -6.775431 6.130177 20.840902 7.253591 0.726958 2.955609 0.748844 1.200014 4.789778 1.234947 5.136437 17.702618 5.254652 0.234384 16.830487 2.629005 -0.472608 -4.507273 4.785617 -1.454577 -4.050227 -6.477415 0.433078 -1.902984 -2.032970 149.833567 -75.151044 -159.454433 6.718986 -4.307426 43.511248 -8.828828 -0.849901 0.608170 9.175888 -2.728044 2.355842 -137.183908 -67.279668 140.542952 16.851264 -7.047073 -28.924465 -0.472882 -47.483877 11.096327 -114.815815 83.317181 -103.074379 -1.237319 -12.809088 -3.997973 0.046183 0.946020 0.032123 -8.528837 -51.272426 16.924459 -149.796054 80.593190 -157.704826 0.859943 -17.238481 8.464991 -0.411471 -0.671630 -0.138749
25.500170 49.962747 60.244757 173.103213 -33.150438 -6.812455 6.129900 20.864900 7.289295 0.730831 2.964133 0.754274 1.206234 4.802620 1.243715 5.155303 17.717675 5.281804 0.215585 16.836012 2.679171 -0.524515 -4.494895 4.884866 -1.526818 -3.896762 -6.381491 0.409380 -1.937042 -2.016510 150.953336 -75.058179 -160.476153 6.297569 -4.488692 43.214859 -8.914132 -0.761448 0.592476 8.962956 -2.923141 2.266332 -137.346307 -67.346102 140.742785 17.295584 -7.593807 -28.104052 -0.462931 -47.489124 11.064761 -115.013501 83.328153 -103.257302 -1.213013 -12.829618 -3.982764 -0.007907 0.946098 0.034560 -8.586258 -51.271195 16.931160 -149.731533 80.587197 -157.655169 0.833649 -17.241626 8.476316 -0.393365 -0.665915 -0.132506
25.498253 49.963443 60.238663 173.129870 -33.145950 -6.829323 6.167245 20.888099 7.328677 0.734347 2.973515 0.760079 1.211949 4.816860 1.253016 5.171672 17.735108 5.310123 0.189411 16.837449 2.721000 -0.587238 -4.490004 4.971435 -1.579541 -3.747198 -6.291493 0.390412 -1.970329 -1.992919 152.102430 -75.004096 -161.534817 5.919122 -4.604582 42.873668 -8.997196 -0.669695 0.581802 8.716460 -3.120653 2.173940 -137.410911 -67.438290 140.880181 17.731857 -8.186514 -27.221944 -0.433656 -47.500802 11.050659 -115.162517 83.337180 -103.393577 -1.220550 -12.846765 -3.953353 -0.005585 0.942173 0.020495 -8.606670 -51.273836 16.940730 -149.675677 80.578556 -157.610907 0.821842 -17.241718 8.488107 -0.377882 -0.673005 -0.138739
